<svg width="608" height="612" viewBox="0 0 608 612" fill="none" xmlns="http://www.w3.org/2000/svg">
<ellipse cx="304" cy="304.821" rx="304" ry="304.821" fill="white"/>
<g clip-path="url(#clip0)">
<path fill-rule="evenodd" clip-rule="evenodd" d="M177.033 625.428C190.904 625.471 204.383 625.947 218.294 625.994C274.84 626.183 331.907 625.908 388.659 623.608C404.699 622.959 408.703 622.975 424.674 621.966C434.104 621.932 462.429 621.15 461.011 608.267C460.385 584.273 454.462 560.38 452.597 536.451C449.017 491.466 445.968 445.074 427.99 402.999C423.828 392.951 414.891 386.38 406.044 380.471C397.172 374.097 394.994 367.019 386.806 359.818C385.074 358.296 375.242 357.676 369.952 353.814C362.252 348.192 358.433 338.989 355.561 337.422C353.447 336.269 353.485 328.316 349.248 325.501C343.563 321.723 325.444 318.915 318.852 318.389C312.525 317.885 301.521 318.944 295.585 321.268C285.685 325.143 281.737 332.535 277.377 342.059C219.78 359.914 167.135 390.149 150.785 451.134C136.686 502.282 136.169 557.116 141.616 609.574C142.705 613.41 141.942 619.424 145.247 621.966C133.761 622.627 175.474 625.003 177.033 625.428Z" fill="white"/>
<path fill-rule="evenodd" clip-rule="evenodd" d="M439.008 574.924C437.918 574.378 436.782 573.754 435.537 573.71C433.399 573.636 433.396 570.299 435.537 570.374C437.404 570.44 439.044 571.22 440.687 572.043C442.603 573.003 440.917 575.879 439.008 574.924ZM435.537 481.026C436.995 481.028 438.466 481.212 439.586 482.236C440.252 482.844 440.199 483.979 439.586 484.595C438.93 485.252 437.898 485.201 437.234 484.595C437.451 484.792 437.236 484.596 437.157 484.552C437.139 484.542 437.128 484.535 437.123 484.531C437.107 484.527 437.09 484.523 437.063 484.516C436.889 484.472 436.718 484.429 436.542 484.398C436.539 484.406 436.171 484.373 436.084 484.37C435.901 484.363 435.719 484.362 435.537 484.362C434.634 484.362 433.874 483.6 433.874 482.694C433.874 481.794 434.638 481.026 435.537 481.026ZM419.899 518.445C419.423 520.54 416.217 519.648 416.692 517.558C417.383 514.519 417.257 511.406 416.692 508.357C416.303 506.255 419.509 505.362 419.899 507.47C420.577 511.128 420.729 514.799 419.899 518.445ZM415.699 398.558C413.222 397.968 410.772 397.898 408.239 397.897C406.095 397.896 406.099 394.56 408.239 394.561C411.065 394.562 413.823 394.684 416.583 395.341C418.668 395.838 417.78 399.053 415.699 398.558ZM407.399 479.811C405.962 479.091 404.525 478.37 403.089 477.65C401.172 476.688 402.858 473.812 404.767 474.769L409.077 476.931C410.994 477.892 409.308 480.769 407.399 479.811ZM406.802 545.503C404.98 548.138 402.417 549.775 399.343 550.593C397.268 551.145 396.391 547.926 398.458 547.377C400.657 546.792 402.611 545.727 403.93 543.82C405.143 542.066 408.024 543.735 406.802 545.503ZM395.309 428.054C394.816 427.13 394.074 426.74 393.153 426.719C391.013 426.67 391.012 423.334 393.153 423.383C395.252 423.43 397.177 424.488 398.181 426.371C399.19 428.265 396.318 429.948 395.309 428.054ZM374.215 450.729C373.619 451.38 372.463 451.364 371.863 450.729C371.496 450.34 371.188 449.906 370.945 449.43C370.853 449.25 370.766 449.066 370.664 448.89C370.619 448.812 370.569 448.735 370.517 448.66C370.5 448.644 370.464 448.607 370.426 448.567C369.787 447.889 369.803 446.889 370.426 446.208C371.023 445.557 372.179 445.573 372.778 446.208C373.145 446.597 373.454 447.031 373.696 447.507C373.789 447.687 373.875 447.871 373.977 448.047C374.023 448.125 374.073 448.202 374.124 448.277C374.142 448.293 374.178 448.33 374.215 448.37C374.854 449.047 374.838 450.048 374.215 450.729ZM372.441 499.987C370.275 500.981 367.899 500.981 365.733 499.987C364.913 499.61 364.719 498.422 365.137 497.704C365.622 496.873 366.596 496.732 367.412 497.106C368.395 497.557 369.781 497.556 370.763 497.106C371.582 496.73 372.547 496.863 373.037 497.704C373.459 498.427 373.258 499.612 372.441 499.987ZM366.532 534.853C366.16 535.736 365.357 536.206 364.417 536.242C363.486 536.277 362.793 535.449 362.754 534.574C362.729 534.008 363.034 533.525 363.472 533.225C363.472 533.195 363.473 533.164 363.473 533.132C363.474 532.198 364.235 531.505 365.136 531.465C366.034 531.424 366.799 532.26 366.799 533.132C366.799 533.721 366.762 534.305 366.532 534.853ZM357.952 590.283C355.298 590.326 352.705 590.96 350.05 591.003C347.906 591.038 347.912 587.702 350.05 587.668C352.704 587.624 355.298 586.99 357.952 586.947C360.097 586.912 360.09 590.248 357.952 590.283ZM346.916 376.512C345.363 377.997 343.444 378.728 341.551 379.656C339.634 380.595 337.95 377.717 339.873 376.775C341.476 375.989 343.25 375.409 344.565 374.154C346.116 372.672 348.47 375.029 346.916 376.512ZM342.746 414.962C341.656 414.417 340.52 413.792 339.275 413.749C337.137 413.674 337.134 410.338 339.275 410.413C341.142 410.478 342.782 411.259 344.425 412.082C346.342 413.042 344.656 415.918 342.746 414.962ZM322.753 569.281C322.261 568.357 321.519 567.967 320.598 567.946C318.457 567.897 318.456 564.561 320.598 564.61C322.697 564.658 324.622 565.715 325.626 567.598C326.635 569.492 323.763 571.175 322.753 569.281ZM315.829 496.843C315.167 496.234 315.213 495.103 315.829 494.485C316.548 493.764 317.266 493.044 317.985 492.323C318.642 491.664 319.672 491.712 320.336 492.323C320.998 492.933 320.952 494.064 320.336 494.682C319.617 495.403 318.899 496.123 318.181 496.843C317.523 497.503 316.493 497.455 315.829 496.843ZM307.666 609.738C305.267 609.681 303.018 608.991 300.759 608.237C298.735 607.561 299.608 604.341 301.643 605.02C303.606 605.675 305.579 606.353 307.666 606.402C309.807 606.451 309.807 609.787 307.666 609.738ZM296.89 538.403C294.723 538.343 292.925 537.236 291.405 535.753C289.867 534.253 292.221 531.897 293.756 533.394C294.626 534.243 295.63 535.032 296.89 535.067C299.03 535.127 299.032 538.463 296.89 538.403ZM303.582 446.667C303.609 447.555 303.983 448.507 304.532 449.09C306.002 450.652 303.653 453.013 302.181 451.449C300.966 450.159 300.308 448.432 300.257 446.667C300.195 444.516 303.521 444.525 303.582 446.667ZM278.215 374.013C277.519 372.646 276.607 371.044 275.22 370.288C273.336 369.263 275.016 366.384 276.898 367.408C278.784 368.435 280.134 370.458 281.087 372.33C282.06 374.24 279.189 375.926 278.215 374.013ZM273.904 408.705C273.132 408.683 272.366 408.55 271.622 408.348C271.304 408.261 270.99 408.162 270.672 408.075C270.535 408.038 269.956 407.965 270.312 407.984C269.411 407.936 268.649 407.26 268.649 406.317C268.649 405.45 269.414 404.6 270.312 404.649C271.546 404.715 272.669 405.334 273.904 405.369C276.043 405.43 276.044 408.766 273.904 408.705ZM263.128 462.025H259.536C257.392 462.025 257.396 458.689 259.536 458.689H263.128C265.271 458.689 265.267 462.025 263.128 462.025ZM258.937 609.51C257.848 610.056 256.564 610.574 255.682 611.411C254.127 612.886 251.772 610.53 253.331 609.052C254.454 607.986 255.891 607.316 257.259 606.629C258.065 606.225 259.056 606.408 259.534 607.228C259.966 607.969 259.741 609.107 258.937 609.51ZM250.913 567.361C250.774 567.322 250.627 567.295 250.486 567.276C249.92 567.199 249.329 567.226 248.761 567.225C246.617 567.224 246.621 563.888 248.761 563.89C250.448 563.89 252.203 563.914 253.529 565.099C254.202 565.7 254.137 566.848 253.529 567.457C252.868 568.12 251.847 568.056 251.177 567.457C251.248 567.521 251.005 567.387 250.913 567.361ZM248.761 510.674C249.244 509.675 249.251 509.024 249.252 507.914C249.254 505.764 252.579 505.767 252.578 507.914C252.577 509.526 252.338 510.898 251.632 512.358C251.239 513.172 250.086 513.384 249.358 512.957C248.54 512.478 248.369 511.485 248.761 510.674ZM239.145 432.424C237.216 433.081 235.494 434.013 233.795 435.138C232.002 436.324 230.338 433.434 232.116 432.257C234.055 430.974 236.06 429.957 238.26 429.206C240.295 428.513 241.16 431.736 239.145 432.424ZM227.927 376.281C226.494 376.321 225.015 376.872 223.738 377.494C221.819 378.429 220.135 375.551 222.06 374.613C223.884 373.724 225.88 373.002 227.927 372.945C230.072 372.884 230.063 376.22 227.927 376.281ZM222.899 526.154C222.335 526.179 221.853 525.874 221.555 525.434C221.523 525.434 221.493 525.433 221.462 525.433C220.53 525.433 219.84 524.669 219.799 523.765C219.759 522.865 220.592 522.097 221.462 522.098C222.049 522.098 222.631 522.134 223.177 522.365C224.058 522.738 224.526 523.544 224.561 524.486C224.597 525.42 223.771 526.115 222.899 526.154ZM214.721 410.807C212.678 411.476 211.811 408.254 213.837 407.591C216.214 406.811 218.644 406.208 221.021 405.428C223.063 404.759 223.93 407.982 221.905 408.645C219.528 409.424 217.098 410.028 214.721 410.807ZM207.262 473.771C206.629 475.818 203.42 474.939 204.055 472.884C204.669 470.9 204.713 468.903 204.714 466.842C204.715 464.692 208.041 464.696 208.04 466.842C208.039 469.188 207.96 471.513 207.262 473.771ZM185.026 549.185C184.905 550.016 184.248 550.614 183.388 550.653C182.513 550.692 181.694 549.858 181.726 548.985C181.787 547.306 183.151 545.937 184.825 545.876C185.756 545.842 186.449 546.667 186.488 547.544C186.526 548.396 185.817 549.061 185.026 549.185ZM173.773 453.32C172.016 453.908 170.138 454.468 168.76 455.773C167.203 457.246 164.848 454.891 166.408 453.414C168.225 451.694 170.562 450.882 172.889 450.103C174.927 449.42 175.793 452.643 173.773 453.32ZM166.147 518.122C165.664 518.951 164.686 519.1 163.872 518.721C162.781 518.212 161.577 518.229 160.401 518.228C158.258 518.226 158.261 514.89 160.401 514.892C162.215 514.894 163.889 515.065 165.551 515.84C166.368 516.222 166.568 517.401 166.147 518.122ZM161.838 596.768C160.907 596.802 160.214 595.976 160.175 595.1C160.137 594.248 160.845 593.583 161.637 593.458C161.758 592.628 162.415 592.029 163.275 591.991C164.15 591.951 164.969 592.785 164.937 593.659C164.876 595.338 163.512 596.706 161.838 596.768ZM464.828 609.381C464.263 607.342 462.97 605.695 461.993 603.86C461.666 603.241 461.552 602.857 461.374 602.404C461.133 602.888 460.665 603.252 459.961 603.253C458.611 603.253 457.032 603.166 455.772 603.746C454.952 604.122 453.987 603.988 453.497 603.147C453.076 602.425 453.277 601.24 454.093 600.865C455.951 600.012 457.947 599.918 459.961 599.916C460.459 599.916 460.836 600.1 461.102 600.376C461.872 589.802 461.853 579.219 461.124 568.637C460.347 557.329 458.559 546.245 456.688 535.083C455.783 529.67 454.606 524.203 454.835 518.691C455.063 513.216 457.404 508.112 455.745 502.62C455.08 500.419 453.941 498.4 453.201 496.224C452.407 493.88 452.478 491.566 452.839 489.139C453.583 484.198 454.818 479.315 452.843 474.491C451.97 472.351 450.556 470.442 449.875 468.232C449.027 465.484 449.143 462.444 449.002 459.596C448.715 453.85 448.64 448.066 448.166 442.333C447.954 439.764 447.493 437.329 446.441 434.973C445.431 432.705 443.93 430.641 443.261 428.235C442.596 425.866 442.538 423.368 442.18 420.946C441.806 418.385 441.22 415.863 440.43 413.402C437.378 403.879 431.787 395.322 425.181 387.904C418.159 380.019 409.766 374.081 400.857 368.547C396.172 365.638 391.488 362.728 386.806 359.818C386.707 360.364 386.359 360.866 385.693 361.089C383.935 361.678 382.058 362.238 380.68 363.542C379.123 365.016 376.768 362.661 378.328 361.184C379.955 359.643 382 358.832 384.081 358.119C381.948 356.771 379.792 355.374 377.385 354.595C375.277 353.911 372.168 354.508 370.459 352.956C369.116 351.735 368.692 349.47 368.177 347.811C367.532 345.751 366.975 343.578 366.156 341.577C365.599 340.209 364.789 338.896 363.766 337.837C363.317 336.102 362.493 334.517 361.038 333.554C357.231 331.027 352.554 333.538 350.878 337.14C349.494 337.136 348.035 337.44 346.688 337.524C343.919 337.699 341.146 337.778 338.374 337.77C332.948 337.753 327.519 337.399 322.139 336.677C312.52 335.385 303.187 332.779 293.729 330.748C293.675 330.623 293.612 330.498 293.538 330.373C291.501 326.945 286.425 327.525 283.227 328.821C281.856 329.376 280.459 330.077 279.673 331.378C278.842 331.94 278.122 332.624 277.644 333.346C276.655 334.834 275.89 337.837 273.882 338.087C272.56 338.249 271.217 337.995 269.874 338.187C268.195 338.42 266.69 339.013 265.139 339.688C253.333 344.829 241.127 350.546 228.314 352.539C225.309 353.006 222.249 353.49 219.638 355.179C217.518 356.551 215.88 358.436 214.13 360.224C212.425 361.967 211.02 362.739 208.588 363.052C205.637 363.431 203.08 364.248 200.922 366.4C199.131 368.189 197.962 370.474 196.557 372.551C195.127 374.669 193.028 375.861 190.849 377.091C185.699 380.002 180.901 383.517 176.723 387.733C167.922 396.623 162.593 408.048 157.221 419.182C151.414 431.224 145.984 443.413 142.218 456.273C138.526 468.899 136.331 481.888 135.317 494.998C134.248 508.754 134.099 522.565 133.209 536.329C132.764 543.205 132.428 550.09 132.087 556.97C131.754 563.767 131.268 570.576 131.346 577.381C131.496 590.537 134.119 603.735 138.705 616.053C139.848 619.117 141.116 622.14 142.467 625.118C143.652 627.732 147.705 627.44 148.978 625.118C149.269 624.584 149.497 624.034 149.688 623.475C153.014 623.504 156.373 623.245 159.678 623.554C165.515 624.1 171.364 624.405 177.217 624.767C188.8 625.489 200.403 625.968 211.989 626.631C213.113 626.696 214.237 626.76 215.361 626.827C207.104 601.194 208.175 573.482 206.868 546.823C206.763 544.674 210.09 544.687 210.194 546.823C211.506 573.596 210.389 601.379 218.938 627.054C222.254 627.279 225.567 627.555 228.867 627.957C231.536 628.278 234.218 628.658 236.912 628.525C239.967 628.379 242.952 627.678 245.933 627.069C251.35 625.964 256.567 626.465 262.005 627.144C267.821 627.874 273.658 628.279 279.511 628.533C302.95 629.563 326.546 630.501 349.976 628.929C355.647 628.549 361.305 628.016 366.938 627.29C372.741 626.544 378.483 625.289 384.282 624.576C389.998 623.875 395.253 625.797 400.903 626.152C406.664 626.515 412.58 625.31 418.288 624.617C420.15 624.391 422.014 624.171 423.879 623.952C421.479 607.45 420.114 590.824 418.788 574.204C418.617 572.06 421.944 572.079 422.114 574.204C423.429 590.694 424.763 607.197 427.16 623.569C437.044 622.415 446.937 621.248 456.718 619.451C459.503 618.942 462.272 618.112 463.939 615.619C465.173 613.772 465.423 611.507 464.828 609.381Z" fill="black"/>
<path fill-rule="evenodd" clip-rule="evenodd" d="M390.139 259.422C389.244 251.535 390.402 235.049 390.48 234.047C390.97 227.716 388.012 202.712 382.421 205.016C373.041 197.568 360.548 195.923 348.867 195.138C324.602 193.506 298.788 197.252 280.051 213.631C270.785 222.138 261.764 234.509 262.49 247.39C254.071 259.601 242.202 276.35 252.692 290.624C256.257 295.185 261.924 296.883 266.403 300.337C275.413 307.626 281.065 318.086 290.16 325.332C314.256 347.05 355.17 351.586 378.844 326.884C397.15 308.994 394.19 282.229 390.97 259.422C388.805 244.089 391.885 274.809 390.139 259.422Z" fill="white"/>
<path fill-rule="evenodd" clip-rule="evenodd" d="M316.451 161.69C322.941 160.377 329.604 159.56 336.231 159.806L336.742 159.826C341.729 160.025 348.043 160.468 352.393 163.376C352.643 163.124 353.046 162.995 353.411 163.169C358.58 165.644 364.265 167.434 369.708 169.212C375.126 170.981 380.746 172.149 386.425 172.62C388.561 172.797 390.39 175.111 389.037 177.186C388.715 177.68 388.402 178.18 388.089 178.681C388.612 178.626 389.134 178.57 389.656 178.517C391.374 178.343 393.091 180.183 392.989 181.861C392.925 182.916 392.812 183.959 392.644 184.989C393.298 184.976 393.949 185.074 394.577 185.34C397.76 186.689 397.538 190.491 397.3 193.384C396.97 197.399 395.473 201.651 392.694 204.656C394.769 206.818 396.238 209.4 397.114 212.467C397.75 214.706 398.104 217.091 397.929 219.422L397.874 220.12C397.658 222.649 397.228 225.45 395.414 227.269C394.483 228.208 393.335 228.55 392.242 228.441C392.903 234.271 393.327 240.133 393.726 245.975L393.913 248.768C394.804 262.269 395.473 275.859 395.298 289.383C395.135 302.022 392.645 314.29 384.917 324.552C377.878 333.896 367.772 340.785 356.34 343.404C350.179 344.817 343.889 344.917 337.653 344.017C334.63 343.579 331.588 342.907 328.719 341.848C325.543 340.672 323.261 338.942 321.124 336.348C320.113 335.118 320.6 332.499 322.612 332.745C325.656 333.116 328.434 333.562 331.352 334.465L331.77 334.597C334.677 335.531 337.686 336.227 340.725 336.523C346.949 337.128 353.267 336.519 359.229 334.626C368.937 331.54 377.297 324.664 382.655 316.024C389.016 305.783 389.735 294.158 389.643 282.382C389.545 269.461 389.126 256.531 388.442 243.623L388.326 241.472C387.964 234.829 387.615 228.183 387.307 221.536C387.212 219.451 387.066 217.349 386.804 215.269C384.406 213.859 382.256 211.916 380.855 209.518C378.041 210.686 375.081 211.528 372.358 212.2C366.049 213.756 359.5 214.134 353.079 213.159C351.347 213.877 349.581 214.508 347.787 215.051C347.303 215.266 346.818 215.478 346.334 215.686C342.01 217.541 337.624 219.113 333.059 220.264L331.938 220.545C329.536 221.139 326.927 221.723 324.371 221.907C323.951 222.07 323.498 222.207 323.003 222.328C320.675 222.895 318.259 223.075 315.873 222.874C313.549 222.678 311.87 220.322 313.15 218.117C314.085 216.507 315.029 214.902 315.981 213.3C312.668 214.685 309.247 215.836 305.796 216.811C302.312 217.796 298.779 218.625 295.241 219.388C293.349 219.793 291.45 220.152 289.562 220.556C288.211 220.844 286.137 220.994 285.034 221.886C283.817 222.866 283.472 225.151 283.01 226.561C282.403 228.391 281.833 230.23 281.314 232.09C280.279 235.801 279.431 239.566 278.774 243.369C278.117 247.176 277.676 251.021 277.431 254.878C277.186 258.731 277.294 262.609 276.899 266.445C276.687 268.48 274.509 269.527 272.9 268.105C272.711 267.938 272.521 267.769 272.333 267.599L272.052 267.342C270.675 266.091 269.341 264.765 268.24 263.272C268.04 262.997 267.849 262.709 267.67 262.417C267.641 262.417 267.616 262.409 267.587 262.388L267.282 262.157C263.919 259.647 258.302 256.375 255.024 260.545C253.979 261.873 253.444 263.565 253 265.197L252.221 268.118C251.717 270.024 251.243 271.941 250.966 273.892C250.338 278.262 250.654 283.3 253.652 286.802C254.849 288.203 256.5 289.204 258.341 289.467C259.368 289.609 260.382 289.433 261.401 289.304C262.436 289.175 263.433 289.383 264.469 289.283C266.115 289.121 266.834 291.097 266.219 292.34C265.887 293.007 265.495 293.582 265.051 294.07C265.408 294.379 265.749 294.712 266.078 295.063C267.051 295.375 267.923 296.047 268.576 296.935C269.104 297.652 269.378 298.432 269.424 299.253C269.482 299.458 269.532 299.666 269.578 299.879L270.47 301.331C270.666 301.649 270.862 301.964 271.058 302.272C273.328 305.858 275.847 308.894 278.978 311.755C281.992 314.507 285.263 316.971 288.095 319.923L288.428 320.274C291.068 323.064 293.85 326.441 292.817 330.498C292.551 331.54 291.1 332.291 290.152 331.586C287.105 329.318 285.571 325.723 282.985 322.971C280.324 320.136 277.377 317.588 274.708 314.761C272.184 312.092 270.193 309.069 268.693 305.742C268.094 306.405 267.221 306.876 266.011 307.059C263.933 307.372 261.995 306.15 261.089 304.345C260.507 304.603 259.913 304.837 259.314 305.02C256.162 305.988 254.18 302.472 255.369 299.875C256.004 298.482 256.798 297.273 257.784 296.255C254.703 295.83 251.569 294.233 249.544 292.24C244.464 287.232 243.766 279.705 244.909 273.013C245.516 269.464 246.563 265.874 247.923 262.542C248.16 261.962 248.414 261.379 248.692 260.803C248.538 260.799 248.38 260.732 248.28 260.603C247.361 259.344 246.244 258.314 245.561 256.904C244.934 255.612 244.236 254.303 243.74 252.956C242.722 250.199 242.224 247.089 241.891 244.174C241.205 238.207 241.471 232.277 242.381 226.348C243.932 216.249 247.677 206.584 253.194 198.103C252.893 197.945 252.605 197.754 252.337 197.528L252.205 197.412L251.989 197.217C250.415 195.788 250.551 193.109 251.989 191.662L252.444 191.205C253.019 190.632 253.515 190.178 254.444 189.554C254.581 189.462 254.721 189.375 254.863 189.294C254.377 188.392 254.208 187.338 254.547 186.175C255.728 182.124 261.539 182.267 265.223 184.034C269.298 180.386 273.817 177.219 278.715 174.654C290.381 168.55 303.572 164.292 316.451 161.69ZM256.151 268.397C258.329 267.684 261.223 269.18 263.181 270.081C265.663 271.224 267.775 272.912 269.82 274.697C270.838 275.59 271.021 277.049 270.768 278.296C270.742 278.421 270.718 278.55 270.688 278.679C270.418 280.01 268.938 281.056 267.629 281.019C264.889 280.944 263.584 278.571 262.033 276.561C261.85 276.886 261.622 277.187 261.339 277.412L261.148 277.562C260.504 278.053 259.794 278.446 258.944 278.408C258.341 278.379 257.764 278.225 257.231 277.945C255.901 277.241 255.315 275.514 255.677 274.109C255.901 273.225 256.417 272.533 257.09 272.054L256.839 271.881C256.302 271.506 255.812 271.111 255.43 270.528L255.344 270.39H255.377C254.961 269.673 255.232 268.697 256.151 268.397Z" fill="black"/>
<path fill-rule="evenodd" clip-rule="evenodd" d="M358.756 310.36C355.693 311.25 352.406 311.329 349.284 310.41C346.453 309.577 343.546 307.743 341.462 305.316C339.611 303.16 338.412 300.54 338.459 297.743C338.464 297.424 338.578 297.157 338.753 296.95C338.942 296.727 339.205 296.574 339.487 296.508C339.777 296.439 340.084 296.464 340.345 296.583C340.582 296.69 340.784 296.873 340.911 297.141C341.231 297.563 341.55 297.979 341.871 298.383C344.446 301.572 346.939 303.955 350.811 304.81C352.912 305.274 355.01 305.068 356.935 304.361C358.996 303.603 360.859 302.271 362.319 300.566C362.979 299.796 363.758 299.481 364.519 299.476C365.382 299.47 366.235 299.872 366.878 300.515C367.51 301.147 367.933 302.006 367.971 302.904C368.005 303.693 367.748 304.516 367.066 305.251C364.819 307.671 361.907 309.445 358.756 310.36ZM358.662 270.416C361.801 272.33 366.585 276.793 363.207 281.538C359.232 285.722 353.509 280.925 350.688 278.756C348.073 277.074 345.135 281.399 347.561 283.362C367.942 298.496 376.212 270.917 360.25 268.166C358.492 267.863 357.839 269.824 358.662 270.416ZM329.296 261.994C328.287 261.347 327.1 261.125 325.784 261.725C324.756 262.194 322.953 263.757 321.699 265.812C320.84 267.218 320.232 268.867 320.358 270.585C320.388 270.984 320.241 271.278 320.009 271.495C319.826 271.667 319.562 271.793 319.251 271.833C318.987 271.866 318.692 271.836 318.452 271.761C317.996 271.618 317.754 271.321 317.663 271.078C316.784 268.738 317.163 266.127 318.147 263.771C319.476 260.591 321.889 257.928 323.47 257.069C326.176 255.599 329.367 255.532 332.076 257.029C334.383 258.304 335.825 260.361 337.259 262.459C337.564 262.905 337.866 263.347 338.179 263.782C338.806 264.653 338.868 265.517 338.626 266.258C338.357 267.079 337.671 267.772 336.814 268.134C336.021 268.47 335.102 268.517 334.288 268.172C333.6 267.882 332.969 267.315 332.57 266.353C331.898 264.732 330.777 262.945 329.296 261.994ZM380.539 265.599C379.848 265.96 379.307 266.069 378.541 265.839C378.117 265.711 377.698 265.466 377.37 265.137C377.045 264.811 376.81 264.406 376.719 263.956C376.495 262.846 375.889 261.807 375.026 261.129C374.289 260.55 373.358 260.243 372.325 260.416C371.211 260.603 370.149 261.32 369.418 262.165C369.174 262.448 368.982 262.769 368.789 263.088C368.429 263.685 368.079 264.239 367.582 264.677C367.394 264.844 367.11 264.959 366.835 264.959C366.723 264.959 366.61 264.941 366.502 264.907C365.393 263.791 365.18 262.944 365.215 262.104C365.253 261.223 365.599 260.331 366.159 259.498C367.471 257.546 369.964 255.945 371.646 255.583C373.949 255.086 376.236 255.682 378.07 256.973C379.958 258.3 381.356 260.362 381.792 262.685C381.897 263.244 381.852 263.848 381.64 264.372C381.432 264.883 381.07 265.322 380.539 265.599ZM334.375 241.18C332.993 242.531 331.357 242.74 329.701 242.926C328.782 243.03 328.048 243.114 327.325 243.278C325.34 243.727 323.377 244.405 321.586 245.38C319.714 246.399 317.674 247.629 316.207 249.204C315.858 249.578 315.529 249.972 315.2 250.366C314.899 250.725 314.61 251.071 314.305 251.405C313.955 251.788 313.622 252.19 313.291 252.59C313.087 252.928 313.046 253.011 313.005 253.098C312.943 253.228 312.871 253.373 312.789 253.529C312.676 253.743 312.544 253.977 312.405 254.19C312.175 254.577 312.052 254.684 311.945 254.732C311.768 254.811 311.6 254.85 311.437 254.829C311.284 254.809 311.14 254.736 310.998 254.615C310.288 254.014 310.079 253.027 310.1 251.979C310.133 250.389 310.718 248.629 311.257 247.547C312.51 245.033 314.248 242.419 316.337 240.542C318.722 238.4 321.331 236.779 324.327 235.661C326.19 234.966 328.346 234.329 330.374 234.409C331.835 234.467 333.229 234.903 334.38 235.99C335.087 236.658 335.426 237.607 335.426 238.556C335.426 239.523 335.074 240.497 334.375 241.18ZM383.351 253.55C383.263 253.694 383.141 253.794 383.006 253.853C382.864 253.916 382.706 253.934 382.553 253.908C382.402 253.883 382.258 253.814 382.144 253.709C382.035 253.608 381.951 253.474 381.914 253.311C380.996 249.268 379.214 246.26 375.411 244.32C373.54 243.366 371.389 242.76 369.352 242.276C368.76 242.136 368.135 242.045 367.505 241.952C365.531 241.663 363.543 241.332 362.256 239.732C361.481 238.768 361.156 237.535 361.34 236.408C361.513 235.346 362.131 234.373 363.256 233.79C366.054 232.338 369.533 233.762 372.359 234.976C372.569 235.066 372.774 235.154 372.976 235.239C375.74 236.41 378.261 237.954 380.333 240.163C381.977 241.916 383.501 244.507 384.114 247.172C384.625 249.389 384.505 251.653 383.351 253.55Z" fill="black"/>
<path fill-rule="evenodd" clip-rule="evenodd" d="M367.466 317.094C363.594 313.634 359.255 306.679 353.693 312.183C352.317 313.737 351.76 317.223 349.656 317.907C346.863 318.816 344.094 315.852 343.142 313.575C339.247 300.925 355.349 297.455 364.523 299.499C369.004 301.345 372.305 308.775 372.505 312.653C372.633 315.259 370.434 319.092 367.466 317.094ZM396.675 297.596C396.637 297.428 396.584 297.276 396.521 297.138C394.808 296.489 393.453 297.151 392.616 298.388C392.644 298.695 392.735 299.007 392.793 299.312C392.147 300.677 391.564 302.366 390.688 303.546C390.515 303.559 390.336 303.541 390.164 303.491C375.65 305.011 382.736 289.779 368.015 285.996C356.635 284.113 336.068 286.27 330.699 298.15C326.466 317.126 304.938 303.904 297.87 294.035C290.328 285.053 285.452 274.078 280.75 263.429C279.756 261.175 276.655 262.786 276.993 264.949C272.647 273.693 272.791 284.197 271.715 293.777C269.884 312.89 268.1 339.692 285.805 351.363C308.872 377.514 366.474 386.743 393.08 362.714C402.29 342.853 401.154 318.623 396.675 297.596Z" fill="black"/>
<path fill-rule="evenodd" clip-rule="evenodd" d="M381.523 239.406C391.281 239.406 396.85 241.511 398.89 241.675L398.951 241.679C399.8 241.733 400.562 241.805 401.36 242.114C404.298 243.249 404.776 246.339 403.062 248.287C402.942 252.316 403.47 257.025 402.564 261.067C401.445 278.11 393.455 280.986 388.913 282.035C386.632 282.563 383.93 282.772 381.507 282.216C377.375 282.061 373.29 280.764 369.795 278.504C364.927 275.355 361.311 270.515 360.138 264.771C359.582 262.033 359.322 259.183 359.625 256.4L359.67 256.016C358.087 255.257 356.254 255.114 354.364 255.047C353.461 255.014 352.571 254.985 351.706 255.024C350.861 255.119 350.026 255.245 349.189 255.416C348.274 255.693 347.411 256.15 346.613 256.873L346.558 257.929C346.408 260.567 346.063 263.213 345.531 265.801C344.744 269.62 343.479 273.266 340.788 275.975C339.876 277.34 338.749 278.558 337.38 279.614C332.408 283.454 325.652 284.863 319.452 284.332C306.866 283.255 299.59 273.233 297.913 268.949L297.813 268.69C296.602 265.505 295.637 261.373 291.81 260.689L290.996 260.542C289.249 260.213 287.638 259.755 286.614 258.046C286.165 257.3 285.934 256.466 285.877 255.615C285.28 255.661 284.683 255.705 284.088 255.747C279.346 256.754 250.899 257.607 248.628 257.607C248.628 257.607 244.263 259.449 242.421 258.021C241.143 257.029 240.723 255.706 241.426 254.207C242.487 251.951 247.382 250.595 249.555 250.165C249.555 250.165 284.628 250.457 287.152 249.977C288.714 248.362 291.508 248.583 293.842 248.328C295.775 246.945 298.478 246.02 300.614 245.4C301.049 245.235 301.48 245.075 301.899 244.924C305.814 243.526 309.883 242.785 314.015 242.387C318.275 241.981 322.548 242.165 326.783 242.747C328.568 242.99 330.336 243.304 332.092 243.714C335.236 244.13 338.361 244.815 341.506 245.627L342.136 245.791C345.447 246.662 348.851 247.415 352.279 246.825C355.07 246.347 357.754 245.27 360.327 244.105L360.662 243.953C366.321 241.361 375.157 239.406 381.523 239.406ZM331.752 248.881C329.664 248.42 328.772 251.649 330.867 252.111C332.35 252.438 333.607 253.188 334.456 254.459L334.545 254.597C335.685 256.416 338.566 254.737 337.419 252.906C336.128 250.846 334.122 249.403 331.752 248.881ZM392.899 246.879C392.163 246.359 391.05 246.745 390.622 247.48C390.152 248.289 390.46 249.19 391.15 249.719L391.22 249.771C391.852 250.218 392.468 251.019 392.545 251.84L392.552 251.943C392.635 254.091 395.964 254.102 395.88 251.943C395.799 249.83 394.58 248.065 392.899 246.879Z" fill="black"/>
</g>
<defs>
<clipPath id="clip0">
<rect width="472.233" height="512.967" fill="white" transform="translate(66.8997 99.0329)"/>
</clipPath>
</defs>
</svg>
