<svg width="504" height="612" viewBox="0 0 504 612" fill="none" xmlns="http://www.w3.org/2000/svg">
<ellipse cx="200" cy="304.821" rx="304" ry="304.821" fill="white"/>
<g clip-path="url(#clip0)">
<path fill-rule="evenodd" clip-rule="evenodd" d="M73.0325 625.428C86.9043 625.471 100.383 625.947 114.294 625.994C170.84 626.183 227.907 625.908 284.659 623.608C300.699 622.959 304.703 622.975 320.674 621.966C330.104 621.932 358.429 621.15 357.011 608.267C356.385 584.273 350.462 560.38 348.597 536.451C345.017 491.466 341.968 445.074 323.99 402.999C319.828 392.951 310.891 386.38 302.044 380.471C293.172 374.097 290.994 367.019 282.806 359.818C281.074 358.296 271.242 357.676 265.952 353.814C258.252 348.192 254.433 338.989 251.561 337.422C249.447 336.269 249.485 328.316 245.248 325.501C239.563 321.723 221.444 318.915 214.852 318.389C208.525 317.885 197.521 318.944 191.585 321.268C181.685 325.143 177.737 332.535 173.377 342.059C115.78 359.914 63.1345 390.149 46.7849 451.134C32.6856 502.282 32.1688 557.116 37.6157 609.574C38.7053 613.41 37.9416 619.424 41.2466 621.966C29.761 622.627 71.4744 625.003 73.0325 625.428Z" fill="white"/>
<path fill-rule="evenodd" clip-rule="evenodd" d="M335.008 574.924C333.918 574.378 332.782 573.754 331.537 573.71C329.399 573.636 329.396 570.299 331.537 570.374C333.404 570.44 335.044 571.22 336.687 572.043C338.603 573.003 336.917 575.879 335.008 574.924ZM331.537 481.026C332.995 481.028 334.466 481.212 335.586 482.236C336.252 482.844 336.199 483.979 335.586 484.595C334.93 485.252 333.898 485.201 333.234 484.595C333.451 484.792 333.236 484.596 333.157 484.552C333.139 484.542 333.128 484.535 333.123 484.531C333.107 484.527 333.09 484.523 333.063 484.516C332.889 484.472 332.718 484.429 332.542 484.398C332.539 484.406 332.171 484.373 332.084 484.37C331.901 484.363 331.719 484.362 331.537 484.362C330.634 484.362 329.874 483.6 329.874 482.694C329.874 481.794 330.638 481.026 331.537 481.026ZM315.899 518.445C315.423 520.54 312.217 519.648 312.692 517.558C313.383 514.519 313.257 511.406 312.692 508.357C312.303 506.255 315.509 505.362 315.899 507.47C316.577 511.128 316.729 514.799 315.899 518.445ZM311.699 398.558C309.222 397.968 306.772 397.898 304.239 397.897C302.095 397.896 302.099 394.56 304.239 394.561C307.065 394.562 309.823 394.684 312.583 395.341C314.668 395.838 313.78 399.053 311.699 398.558ZM303.399 479.811C301.962 479.091 300.525 478.37 299.089 477.65C297.172 476.688 298.858 473.812 300.767 474.769L305.077 476.931C306.994 477.892 305.308 480.769 303.399 479.811ZM302.802 545.503C300.98 548.138 298.417 549.775 295.343 550.593C293.268 551.145 292.391 547.926 294.458 547.377C296.657 546.792 298.611 545.727 299.93 543.82C301.143 542.066 304.024 543.735 302.802 545.503ZM291.309 428.054C290.816 427.13 290.074 426.74 289.153 426.719C287.013 426.67 287.012 423.334 289.153 423.383C291.252 423.43 293.177 424.488 294.181 426.371C295.19 428.265 292.318 429.948 291.309 428.054ZM270.215 450.729C269.619 451.38 268.463 451.364 267.863 450.729C267.496 450.34 267.188 449.906 266.945 449.43C266.853 449.25 266.766 449.066 266.664 448.89C266.619 448.812 266.569 448.735 266.517 448.66C266.5 448.644 266.464 448.607 266.426 448.567C265.787 447.889 265.803 446.889 266.426 446.208C267.023 445.557 268.179 445.573 268.778 446.208C269.145 446.597 269.454 447.031 269.696 447.507C269.789 447.687 269.875 447.871 269.977 448.047C270.023 448.125 270.073 448.202 270.124 448.277C270.142 448.293 270.178 448.33 270.215 448.37C270.854 449.047 270.838 450.048 270.215 450.729ZM268.441 499.987C266.275 500.981 263.899 500.981 261.733 499.987C260.913 499.61 260.719 498.422 261.137 497.704C261.622 496.873 262.596 496.732 263.412 497.106C264.395 497.557 265.781 497.556 266.763 497.106C267.582 496.73 268.547 496.863 269.037 497.704C269.459 498.427 269.258 499.612 268.441 499.987ZM262.532 534.853C262.16 535.736 261.357 536.206 260.417 536.242C259.486 536.277 258.793 535.449 258.754 534.574C258.729 534.008 259.034 533.525 259.472 533.225C259.472 533.195 259.473 533.164 259.473 533.132C259.474 532.198 260.235 531.505 261.136 531.465C262.034 531.424 262.799 532.26 262.799 533.132C262.799 533.721 262.762 534.305 262.532 534.853ZM253.952 590.283C251.298 590.326 248.705 590.96 246.05 591.003C243.906 591.038 243.912 587.702 246.05 587.668C248.704 587.624 251.298 586.99 253.952 586.947C256.097 586.912 256.09 590.248 253.952 590.283ZM242.916 376.512C241.363 377.997 239.444 378.728 237.551 379.656C235.634 380.595 233.95 377.717 235.873 376.775C237.476 375.989 239.25 375.409 240.565 374.154C242.116 372.672 244.47 375.029 242.916 376.512ZM238.746 414.962C237.656 414.417 236.52 413.792 235.275 413.749C233.137 413.674 233.134 410.338 235.275 410.413C237.142 410.478 238.782 411.259 240.425 412.082C242.342 413.042 240.656 415.918 238.746 414.962ZM218.753 569.281C218.261 568.357 217.519 567.967 216.598 567.946C214.457 567.897 214.456 564.561 216.598 564.61C218.697 564.658 220.622 565.715 221.626 567.598C222.635 569.492 219.763 571.175 218.753 569.281ZM211.829 496.843C211.167 496.234 211.213 495.103 211.829 494.485C212.548 493.764 213.266 493.044 213.985 492.323C214.642 491.664 215.672 491.712 216.336 492.323C216.998 492.933 216.952 494.064 216.336 494.682C215.617 495.403 214.899 496.123 214.181 496.843C213.523 497.503 212.493 497.455 211.829 496.843ZM203.666 609.738C201.267 609.681 199.018 608.991 196.759 608.237C194.735 607.561 195.608 604.341 197.643 605.02C199.606 605.675 201.579 606.353 203.666 606.402C205.807 606.451 205.807 609.787 203.666 609.738ZM192.89 538.403C190.723 538.343 188.925 537.236 187.405 535.753C185.867 534.253 188.221 531.897 189.756 533.394C190.626 534.243 191.63 535.032 192.89 535.067C195.03 535.127 195.032 538.463 192.89 538.403ZM199.582 446.667C199.609 447.555 199.983 448.507 200.532 449.09C202.002 450.652 199.653 453.013 198.181 451.449C196.966 450.159 196.308 448.432 196.257 446.667C196.195 444.516 199.521 444.525 199.582 446.667ZM174.215 374.013C173.519 372.646 172.607 371.044 171.22 370.288C169.336 369.263 171.016 366.384 172.898 367.408C174.784 368.435 176.134 370.458 177.087 372.33C178.06 374.24 175.189 375.926 174.215 374.013ZM169.904 408.705C169.132 408.683 168.366 408.55 167.622 408.348C167.304 408.261 166.99 408.162 166.672 408.075C166.535 408.038 165.956 407.965 166.312 407.984C165.411 407.936 164.649 407.26 164.649 406.317C164.649 405.45 165.414 404.6 166.312 404.649C167.546 404.715 168.669 405.334 169.904 405.369C172.043 405.43 172.044 408.766 169.904 408.705ZM159.128 462.025H155.536C153.392 462.025 153.396 458.689 155.536 458.689H159.128C161.271 458.689 161.267 462.025 159.128 462.025ZM154.937 609.51C153.848 610.056 152.564 610.574 151.682 611.411C150.127 612.886 147.772 610.53 149.331 609.052C150.454 607.986 151.891 607.316 153.259 606.629C154.065 606.225 155.056 606.408 155.534 607.228C155.966 607.969 155.741 609.107 154.937 609.51ZM146.913 567.361C146.774 567.322 146.627 567.295 146.486 567.276C145.92 567.199 145.329 567.226 144.761 567.225C142.617 567.224 142.621 563.888 144.761 563.89C146.448 563.89 148.203 563.914 149.529 565.099C150.202 565.7 150.137 566.848 149.529 567.457C148.868 568.12 147.847 568.056 147.177 567.457C147.248 567.521 147.005 567.387 146.913 567.361ZM144.761 510.674C145.244 509.675 145.251 509.024 145.252 507.914C145.254 505.764 148.579 505.767 148.578 507.914C148.577 509.526 148.338 510.898 147.632 512.358C147.239 513.172 146.086 513.384 145.358 512.957C144.54 512.478 144.369 511.485 144.761 510.674ZM135.145 432.424C133.216 433.081 131.494 434.013 129.795 435.138C128.002 436.324 126.338 433.434 128.116 432.257C130.055 430.974 132.06 429.957 134.26 429.206C136.295 428.513 137.16 431.736 135.145 432.424ZM123.927 376.281C122.494 376.321 121.015 376.872 119.738 377.494C117.819 378.429 116.135 375.551 118.06 374.613C119.884 373.724 121.88 373.002 123.927 372.945C126.072 372.884 126.063 376.22 123.927 376.281ZM118.899 526.154C118.335 526.179 117.853 525.874 117.555 525.434C117.523 525.434 117.493 525.433 117.462 525.433C116.53 525.433 115.84 524.669 115.799 523.765C115.759 522.865 116.592 522.097 117.462 522.098C118.049 522.098 118.631 522.134 119.177 522.365C120.058 522.738 120.526 523.544 120.561 524.486C120.597 525.42 119.771 526.115 118.899 526.154ZM110.721 410.807C108.678 411.476 107.811 408.254 109.837 407.591C112.214 406.811 114.644 406.208 117.021 405.428C119.063 404.759 119.93 407.982 117.905 408.645C115.528 409.424 113.098 410.028 110.721 410.807ZM103.262 473.771C102.629 475.818 99.4198 474.939 100.055 472.884C100.669 470.9 100.713 468.903 100.714 466.842C100.715 464.692 104.041 464.696 104.04 466.842C104.039 469.188 103.96 471.513 103.262 473.771ZM81.026 549.185C80.905 550.016 80.2482 550.614 79.3884 550.653C78.5133 550.692 77.6939 549.858 77.7255 548.985C77.7867 547.306 79.1515 545.937 80.8252 545.876C81.7564 545.842 82.449 546.667 82.4881 547.544C82.5263 548.396 81.8171 549.061 81.026 549.185ZM69.7729 453.32C68.0156 453.908 66.1378 454.468 64.7601 455.773C63.2032 457.246 60.8485 454.891 62.4083 453.414C64.225 451.694 66.5618 450.882 68.889 450.103C70.9269 449.42 71.7929 452.643 69.7729 453.32ZM62.1468 518.122C61.6638 518.951 60.6856 519.1 59.872 518.721C58.7811 518.212 57.5768 518.229 56.4007 518.228C54.2576 518.226 54.2609 514.89 56.4007 514.892C58.2149 514.894 59.8886 515.065 61.5507 515.84C62.3684 516.222 62.5675 517.401 62.1468 518.122ZM57.8378 596.768C56.9066 596.802 56.214 595.976 56.1749 595.1C56.1367 594.248 56.8455 593.583 57.6374 593.458C57.758 592.628 58.4153 592.029 59.2746 591.991C60.1501 591.951 60.9695 592.785 60.9375 593.659C60.8764 595.338 59.5124 596.706 57.8378 596.768ZM360.828 609.381C360.263 607.342 358.97 605.695 357.993 603.86C357.666 603.241 357.552 602.857 357.374 602.404C357.133 602.888 356.665 603.252 355.961 603.253C354.611 603.253 353.032 603.166 351.772 603.746C350.952 604.122 349.987 603.988 349.497 603.147C349.076 602.425 349.277 601.24 350.093 600.865C351.951 600.012 353.947 599.918 355.961 599.916C356.459 599.916 356.836 600.1 357.102 600.376C357.872 589.802 357.853 579.219 357.124 568.637C356.347 557.329 354.559 546.245 352.688 535.083C351.783 529.67 350.606 524.203 350.835 518.691C351.063 513.216 353.404 508.112 351.745 502.62C351.08 500.419 349.941 498.4 349.201 496.224C348.407 493.88 348.478 491.566 348.839 489.139C349.583 484.198 350.818 479.315 348.843 474.491C347.97 472.351 346.556 470.442 345.875 468.232C345.027 465.484 345.143 462.444 345.002 459.596C344.715 453.85 344.64 448.066 344.166 442.333C343.954 439.764 343.493 437.329 342.441 434.973C341.431 432.705 339.93 430.641 339.261 428.235C338.596 425.866 338.538 423.368 338.18 420.946C337.806 418.385 337.22 415.863 336.43 413.402C333.378 403.879 327.787 395.322 321.181 387.904C314.159 380.019 305.766 374.081 296.857 368.547C292.172 365.638 287.488 362.728 282.806 359.818C282.707 360.364 282.359 360.866 281.693 361.089C279.935 361.678 278.058 362.238 276.68 363.542C275.123 365.016 272.768 362.661 274.328 361.184C275.955 359.643 278 358.832 280.081 358.119C277.948 356.771 275.792 355.374 273.385 354.595C271.277 353.911 268.168 354.508 266.459 352.956C265.116 351.735 264.692 349.47 264.177 347.811C263.532 345.751 262.975 343.578 262.156 341.577C261.599 340.209 260.789 338.896 259.766 337.837C259.317 336.102 258.493 334.517 257.038 333.554C253.231 331.027 248.554 333.538 246.878 337.14C245.494 337.136 244.035 337.44 242.688 337.524C239.919 337.699 237.146 337.778 234.374 337.77C228.948 337.753 223.519 337.399 218.139 336.677C208.52 335.385 199.187 332.779 189.729 330.748C189.675 330.623 189.612 330.498 189.538 330.373C187.501 326.945 182.425 327.525 179.227 328.821C177.856 329.376 176.459 330.077 175.673 331.378C174.842 331.94 174.122 332.624 173.644 333.346C172.655 334.834 171.89 337.837 169.882 338.087C168.56 338.249 167.217 337.995 165.874 338.187C164.195 338.42 162.69 339.013 161.139 339.688C149.333 344.829 137.127 350.546 124.314 352.539C121.309 353.006 118.249 353.49 115.638 355.179C113.518 356.551 111.88 358.436 110.13 360.224C108.425 361.967 107.02 362.739 104.588 363.052C101.637 363.431 99.08 364.248 96.9224 366.4C95.1306 368.189 93.9624 370.474 92.5573 372.551C91.1267 374.669 89.0277 375.861 86.8493 377.091C81.6985 380.002 76.9011 383.517 72.723 387.733C63.9221 396.623 58.5925 408.048 53.2214 419.182C47.4137 431.224 41.9843 443.413 38.2178 456.273C34.5262 468.899 32.3312 481.888 31.3168 494.998C30.2484 508.754 30.0987 522.565 29.2091 536.329C28.7643 543.205 28.4275 550.09 28.0866 556.97C27.754 563.767 27.2677 570.576 27.3462 577.381C27.4963 590.537 30.1191 603.735 34.705 616.053C35.8482 619.117 37.1158 622.14 38.4669 625.118C39.6521 627.732 43.7054 627.44 44.9775 625.118C45.2685 624.584 45.4972 624.034 45.6884 623.475C49.0142 623.504 52.3733 623.245 55.6783 623.554C61.5151 624.1 67.3639 624.405 73.2173 624.767C84.7998 625.489 96.4027 625.968 107.989 626.631C109.113 626.696 110.237 626.76 111.361 626.827C103.104 601.194 104.175 573.482 102.868 546.823C102.763 544.674 106.09 544.687 106.194 546.823C107.506 573.596 106.389 601.379 114.938 627.054C118.254 627.279 121.567 627.555 124.867 627.957C127.536 628.278 130.218 628.658 132.912 628.525C135.967 628.379 138.952 627.678 141.933 627.069C147.35 625.964 152.567 626.465 158.005 627.144C163.821 627.874 169.658 628.279 175.511 628.533C198.95 629.563 222.546 630.501 245.976 628.929C251.647 628.549 257.305 628.016 262.938 627.29C268.741 626.544 274.483 625.289 280.282 624.576C285.998 623.875 291.253 625.797 296.903 626.152C302.664 626.515 308.58 625.31 314.288 624.617C316.15 624.391 318.014 624.171 319.879 623.952C317.479 607.45 316.114 590.824 314.788 574.204C314.617 572.06 317.944 572.079 318.114 574.204C319.429 590.694 320.763 607.197 323.16 623.569C333.044 622.415 342.937 621.248 352.718 619.451C355.503 618.942 358.272 618.112 359.939 615.619C361.173 613.772 361.423 611.507 360.828 609.381Z" fill="black"/>
<path fill-rule="evenodd" clip-rule="evenodd" d="M286.139 259.422C285.244 251.535 286.402 235.049 286.48 234.047C286.97 227.716 284.012 202.712 278.421 205.016C269.041 197.568 256.548 195.923 244.867 195.138C220.602 193.506 194.788 197.252 176.051 213.631C166.785 222.138 157.764 234.509 158.49 247.39C150.071 259.601 138.202 276.35 148.692 290.624C152.257 295.185 157.924 296.883 162.403 300.337C171.413 307.626 177.065 318.086 186.16 325.332C210.256 347.05 251.17 351.586 274.844 326.884C293.15 308.994 290.19 282.229 286.97 259.422C284.805 244.089 287.885 274.809 286.139 259.422Z" fill="white"/>
<path fill-rule="evenodd" clip-rule="evenodd" d="M212.451 161.69C218.941 160.377 225.604 159.56 232.231 159.806L232.742 159.826C237.729 160.025 244.043 160.468 248.393 163.376C248.643 163.124 249.046 162.995 249.411 163.169C254.58 165.644 260.265 167.434 265.708 169.212C271.126 170.981 276.746 172.149 282.425 172.62C284.561 172.797 286.39 175.111 285.037 177.186C284.715 177.68 284.402 178.18 284.089 178.681C284.612 178.626 285.134 178.57 285.656 178.517C287.374 178.343 289.091 180.183 288.989 181.861C288.925 182.916 288.812 183.959 288.644 184.989C289.298 184.976 289.949 185.074 290.577 185.34C293.76 186.689 293.538 190.491 293.3 193.384C292.97 197.399 291.473 201.651 288.694 204.656C290.769 206.818 292.238 209.4 293.114 212.467C293.75 214.706 294.104 217.091 293.929 219.422L293.874 220.12C293.658 222.649 293.228 225.45 291.414 227.269C290.483 228.208 289.335 228.55 288.242 228.441C288.903 234.271 289.327 240.133 289.726 245.975L289.913 248.768C290.804 262.269 291.473 275.859 291.298 289.383C291.135 302.022 288.645 314.29 280.917 324.552C273.878 333.896 263.772 340.785 252.34 343.404C246.179 344.817 239.889 344.917 233.653 344.017C230.63 343.579 227.588 342.907 224.719 341.848C221.543 340.672 219.261 338.942 217.124 336.348C216.113 335.118 216.6 332.499 218.612 332.745C221.656 333.116 224.434 333.562 227.352 334.465L227.77 334.597C230.677 335.531 233.686 336.227 236.725 336.523C242.949 337.128 249.267 336.519 255.229 334.626C264.937 331.54 273.297 324.664 278.655 316.024C285.016 305.783 285.735 294.158 285.643 282.382C285.545 269.461 285.126 256.531 284.442 243.623L284.326 241.472C283.964 234.829 283.615 228.183 283.307 221.536C283.212 219.451 283.066 217.349 282.804 215.269C280.406 213.859 278.256 211.916 276.855 209.518C274.041 210.686 271.081 211.528 268.358 212.2C262.049 213.756 255.5 214.134 249.079 213.159C247.347 213.877 245.581 214.508 243.787 215.051C243.303 215.266 242.818 215.478 242.334 215.686C238.01 217.541 233.624 219.113 229.059 220.264L227.938 220.545C225.536 221.139 222.927 221.723 220.371 221.907C219.951 222.07 219.498 222.207 219.003 222.328C216.675 222.895 214.259 223.075 211.873 222.874C209.549 222.678 207.87 220.322 209.15 218.117C210.085 216.507 211.029 214.902 211.981 213.3C208.668 214.685 205.247 215.836 201.796 216.811C198.312 217.796 194.779 218.625 191.241 219.388C189.349 219.793 187.45 220.152 185.562 220.556C184.211 220.844 182.137 220.994 181.034 221.886C179.817 222.866 179.472 225.151 179.01 226.561C178.403 228.391 177.833 230.23 177.314 232.09C176.279 235.801 175.431 239.566 174.774 243.369C174.117 247.176 173.676 251.021 173.431 254.878C173.186 258.731 173.294 262.609 172.899 266.445C172.687 268.48 170.509 269.527 168.9 268.105C168.711 267.938 168.521 267.769 168.333 267.599L168.052 267.342C166.675 266.091 165.341 264.765 164.24 263.272C164.04 262.997 163.849 262.709 163.67 262.417C163.641 262.417 163.616 262.409 163.587 262.388L163.282 262.157C159.919 259.647 154.302 256.375 151.024 260.545C149.979 261.873 149.444 263.565 149 265.197L148.221 268.118C147.717 270.024 147.243 271.941 146.966 273.892C146.338 278.262 146.654 283.3 149.652 286.802C150.849 288.203 152.5 289.204 154.341 289.467C155.368 289.609 156.382 289.433 157.401 289.304C158.436 289.175 159.433 289.383 160.469 289.283C162.115 289.121 162.834 291.097 162.219 292.34C161.887 293.007 161.495 293.582 161.051 294.07C161.408 294.379 161.749 294.712 162.078 295.063C163.051 295.375 163.923 296.047 164.576 296.935C165.104 297.652 165.378 298.432 165.424 299.253C165.482 299.458 165.532 299.666 165.578 299.879L166.47 301.331C166.666 301.649 166.862 301.964 167.058 302.272C169.328 305.858 171.847 308.894 174.978 311.755C177.992 314.507 181.263 316.971 184.095 319.923L184.428 320.274C187.068 323.064 189.85 326.441 188.817 330.498C188.551 331.54 187.1 332.291 186.152 331.586C183.105 329.318 181.571 325.723 178.985 322.971C176.324 320.136 173.377 317.588 170.708 314.761C168.184 312.092 166.193 309.069 164.693 305.742C164.094 306.405 163.221 306.876 162.011 307.059C159.933 307.372 157.995 306.15 157.089 304.345C156.507 304.603 155.913 304.837 155.314 305.02C152.162 305.988 150.18 302.472 151.369 299.875C152.004 298.482 152.798 297.273 153.784 296.255C150.703 295.83 147.569 294.233 145.544 292.24C140.464 287.232 139.766 279.705 140.909 273.013C141.516 269.464 142.563 265.874 143.923 262.542C144.16 261.962 144.414 261.379 144.692 260.803C144.538 260.799 144.38 260.732 144.28 260.603C143.361 259.344 142.244 258.314 141.561 256.904C140.934 255.612 140.236 254.303 139.74 252.956C138.722 250.199 138.224 247.089 137.891 244.174C137.205 238.207 137.471 232.277 138.381 226.348C139.932 216.249 143.677 206.584 149.194 198.103C148.893 197.945 148.605 197.754 148.337 197.528L148.205 197.412L147.989 197.217C146.415 195.788 146.551 193.109 147.989 191.662L148.444 191.205C149.019 190.632 149.515 190.178 150.444 189.554C150.581 189.462 150.721 189.375 150.863 189.294C150.377 188.392 150.208 187.338 150.547 186.175C151.728 182.124 157.539 182.267 161.223 184.034C165.298 180.386 169.817 177.219 174.715 174.654C186.381 168.55 199.572 164.292 212.451 161.69ZM152.151 268.397C154.329 267.684 157.223 269.18 159.181 270.081C161.663 271.224 163.775 272.912 165.82 274.697C166.838 275.59 167.021 277.049 166.768 278.296C166.742 278.421 166.718 278.55 166.688 278.679C166.418 280.01 164.938 281.056 163.629 281.019C160.889 280.944 159.584 278.571 158.033 276.561C157.85 276.886 157.622 277.187 157.339 277.412L157.148 277.562C156.504 278.053 155.794 278.446 154.944 278.408C154.341 278.379 153.764 278.225 153.231 277.945C151.901 277.241 151.315 275.514 151.677 274.109C151.901 273.225 152.417 272.533 153.09 272.054L152.839 271.881C152.302 271.506 151.812 271.111 151.43 270.528L151.344 270.39H151.377C150.961 269.673 151.232 268.697 152.151 268.397Z" fill="black"/>
<path fill-rule="evenodd" clip-rule="evenodd" d="M254.756 310.36C251.693 311.25 248.406 311.329 245.284 310.41C242.453 309.577 239.546 307.743 237.462 305.316C235.611 303.16 234.412 300.54 234.459 297.743C234.464 297.424 234.578 297.157 234.753 296.95C234.942 296.727 235.205 296.574 235.487 296.508C235.777 296.439 236.084 296.464 236.345 296.583C236.582 296.69 236.784 296.873 236.911 297.141C237.231 297.563 237.55 297.979 237.871 298.383C240.446 301.572 242.939 303.955 246.811 304.81C248.912 305.274 251.01 305.068 252.935 304.361C254.996 303.603 256.859 302.271 258.319 300.566C258.979 299.796 259.758 299.481 260.519 299.476C261.382 299.47 262.235 299.872 262.878 300.515C263.51 301.147 263.933 302.006 263.971 302.904C264.005 303.693 263.748 304.516 263.066 305.251C260.819 307.671 257.907 309.445 254.756 310.36ZM254.662 270.416C257.801 272.33 262.585 276.793 259.207 281.538C255.232 285.722 249.509 280.925 246.688 278.756C244.073 277.074 241.135 281.399 243.561 283.362C263.942 298.496 272.212 270.917 256.25 268.166C254.492 267.863 253.839 269.824 254.662 270.416ZM225.296 261.994C224.287 261.347 223.1 261.125 221.784 261.725C220.756 262.194 218.953 263.757 217.699 265.812C216.84 267.218 216.232 268.867 216.358 270.585C216.388 270.984 216.241 271.278 216.009 271.495C215.826 271.667 215.562 271.793 215.251 271.833C214.987 271.866 214.692 271.836 214.452 271.761C213.996 271.618 213.754 271.321 213.663 271.078C212.784 268.738 213.163 266.127 214.147 263.771C215.476 260.591 217.889 257.928 219.47 257.069C222.176 255.599 225.367 255.532 228.076 257.029C230.383 258.304 231.825 260.361 233.259 262.459C233.564 262.905 233.866 263.347 234.179 263.782C234.806 264.653 234.868 265.517 234.626 266.258C234.357 267.079 233.671 267.772 232.814 268.134C232.021 268.47 231.102 268.517 230.288 268.172C229.6 267.882 228.969 267.315 228.57 266.353C227.898 264.732 226.777 262.945 225.296 261.994ZM276.539 265.599C275.848 265.96 275.307 266.069 274.541 265.839C274.117 265.711 273.698 265.466 273.37 265.137C273.045 264.811 272.81 264.406 272.719 263.956C272.495 262.846 271.889 261.807 271.026 261.129C270.289 260.55 269.358 260.243 268.325 260.416C267.211 260.603 266.149 261.32 265.418 262.165C265.174 262.448 264.982 262.769 264.789 263.088C264.429 263.685 264.079 264.239 263.582 264.677C263.394 264.844 263.11 264.959 262.835 264.959C262.723 264.959 262.61 264.941 262.502 264.907C261.393 263.791 261.18 262.944 261.215 262.104C261.253 261.223 261.599 260.331 262.159 259.498C263.471 257.546 265.964 255.945 267.646 255.583C269.949 255.086 272.236 255.682 274.07 256.973C275.958 258.3 277.356 260.362 277.792 262.685C277.897 263.244 277.852 263.848 277.64 264.372C277.432 264.883 277.07 265.322 276.539 265.599ZM230.375 241.18C228.993 242.531 227.357 242.74 225.701 242.926C224.782 243.03 224.048 243.114 223.325 243.278C221.34 243.727 219.377 244.405 217.586 245.38C215.714 246.399 213.674 247.629 212.207 249.204C211.858 249.578 211.529 249.972 211.2 250.366C210.899 250.725 210.61 251.071 210.305 251.405C209.955 251.788 209.622 252.19 209.291 252.59C209.087 252.928 209.046 253.011 209.005 253.098C208.943 253.228 208.871 253.373 208.789 253.529C208.676 253.743 208.544 253.977 208.405 254.19C208.175 254.577 208.052 254.684 207.945 254.732C207.768 254.811 207.6 254.85 207.437 254.829C207.284 254.809 207.14 254.736 206.998 254.615C206.288 254.014 206.079 253.027 206.1 251.979C206.133 250.389 206.718 248.629 207.257 247.547C208.51 245.033 210.248 242.419 212.337 240.542C214.722 238.4 217.331 236.779 220.327 235.661C222.19 234.966 224.346 234.329 226.374 234.409C227.835 234.467 229.229 234.903 230.38 235.99C231.087 236.658 231.426 237.607 231.426 238.556C231.426 239.523 231.074 240.497 230.375 241.18ZM279.351 253.55C279.263 253.694 279.141 253.794 279.006 253.853C278.864 253.916 278.706 253.934 278.553 253.908C278.402 253.883 278.258 253.814 278.144 253.709C278.035 253.608 277.951 253.474 277.914 253.311C276.996 249.268 275.214 246.26 271.411 244.32C269.54 243.366 267.389 242.76 265.352 242.276C264.76 242.136 264.135 242.045 263.505 241.952C261.531 241.663 259.543 241.332 258.256 239.732C257.481 238.768 257.156 237.535 257.34 236.408C257.513 235.346 258.131 234.373 259.256 233.79C262.054 232.338 265.533 233.762 268.359 234.976C268.569 235.066 268.774 235.154 268.976 235.239C271.74 236.41 274.261 237.954 276.333 240.163C277.977 241.916 279.501 244.507 280.114 247.172C280.625 249.389 280.505 251.653 279.351 253.55Z" fill="black"/>
<path fill-rule="evenodd" clip-rule="evenodd" d="M263.466 317.094C259.594 313.634 255.255 306.679 249.693 312.183C248.317 313.737 247.76 317.223 245.656 317.907C242.863 318.816 240.094 315.852 239.142 313.575C235.247 300.925 251.349 297.455 260.523 299.499C265.004 301.345 268.305 308.775 268.505 312.653C268.633 315.259 266.434 319.092 263.466 317.094ZM292.675 297.596C292.637 297.428 292.584 297.276 292.521 297.138C290.808 296.489 289.453 297.151 288.616 298.388C288.644 298.695 288.735 299.007 288.793 299.312C288.147 300.677 287.564 302.366 286.688 303.546C286.515 303.559 286.336 303.541 286.164 303.491C271.65 305.011 278.736 289.779 264.015 285.996C252.635 284.113 232.068 286.27 226.699 298.15C222.466 317.126 200.938 303.904 193.87 294.035C186.328 285.053 181.452 274.078 176.75 263.429C175.756 261.175 172.655 262.786 172.993 264.949C168.647 273.693 168.791 284.197 167.715 293.777C165.884 312.89 164.1 339.692 181.805 351.363C204.872 377.514 262.474 386.743 289.08 362.714C298.29 342.853 297.154 318.623 292.675 297.596Z" fill="black"/>
<path fill-rule="evenodd" clip-rule="evenodd" d="M277.523 239.406C287.281 239.406 292.85 241.511 294.89 241.675L294.951 241.679C295.8 241.733 296.562 241.805 297.36 242.114C300.298 243.249 300.776 246.339 299.062 248.287C298.942 252.316 299.47 257.025 298.564 261.067C297.445 278.11 289.455 280.986 284.913 282.035C282.632 282.563 279.93 282.772 277.507 282.216C273.375 282.061 269.29 280.764 265.795 278.504C260.927 275.355 257.311 270.515 256.138 264.771C255.582 262.033 255.322 259.183 255.625 256.4L255.67 256.016C254.087 255.257 252.254 255.114 250.364 255.047C249.461 255.014 248.571 254.985 247.706 255.024C246.861 255.119 246.026 255.245 245.189 255.416C244.274 255.693 243.411 256.15 242.613 256.873L242.558 257.929C242.408 260.567 242.063 263.213 241.531 265.801C240.744 269.62 239.479 273.266 236.788 275.975C235.876 277.34 234.749 278.558 233.38 279.614C228.408 283.454 221.652 284.863 215.452 284.332C202.866 283.255 195.59 273.233 193.913 268.949L193.813 268.69C192.602 265.505 191.637 261.373 187.81 260.689L186.996 260.542C185.249 260.213 183.638 259.755 182.614 258.046C182.165 257.3 181.934 256.466 181.877 255.615C181.28 255.661 180.683 255.705 180.088 255.747C175.346 256.754 146.899 257.607 144.628 257.607C144.628 257.607 140.263 259.449 138.421 258.021C137.143 257.029 136.723 255.706 137.426 254.207C138.487 251.951 143.382 250.595 145.555 250.165C145.555 250.165 180.628 250.457 183.152 249.977C184.714 248.362 187.508 248.583 189.842 248.328C191.775 246.945 194.478 246.02 196.614 245.4C197.049 245.235 197.48 245.075 197.899 244.924C201.814 243.526 205.883 242.785 210.015 242.387C214.275 241.981 218.548 242.165 222.783 242.747C224.568 242.99 226.336 243.304 228.092 243.714C231.236 244.13 234.361 244.815 237.506 245.627L238.136 245.791C241.447 246.662 244.851 247.415 248.279 246.825C251.07 246.347 253.754 245.27 256.327 244.105L256.662 243.953C262.321 241.361 271.157 239.406 277.523 239.406ZM227.752 248.881C225.664 248.42 224.772 251.649 226.867 252.111C228.35 252.438 229.607 253.188 230.456 254.459L230.545 254.597C231.685 256.416 234.566 254.737 233.419 252.906C232.128 250.846 230.122 249.403 227.752 248.881ZM288.899 246.879C288.163 246.359 287.05 246.745 286.622 247.48C286.152 248.289 286.46 249.19 287.15 249.719L287.22 249.771C287.852 250.218 288.468 251.019 288.545 251.84L288.552 251.943C288.635 254.091 291.964 254.102 291.88 251.943C291.799 249.83 290.58 248.065 288.899 246.879Z" fill="black"/>
</g>
<defs>
<clipPath id="clip0">
<rect width="472.233" height="512.967" fill="white" transform="translate(-37.1003 99.0329)"/>
</clipPath>
</defs>
</svg>
