<svg width="32" height="32" viewBox="0 0 32 32" fill="none" xmlns="http://www.w3.org/2000/svg">
<g opacity="0.15">
<path d="M27.1539 18.0048C27.2769 17.328 27.3429 16.6362 27.3429 15.9444C27.3429 14.4103 27.0429 12.9214 26.4518 11.5227C25.8817 10.1692 25.0626 8.954 24.0215 7.91026C22.9891 6.87261 21.7652 6.04614 20.418 5.47688C19.0199 4.88432 17.5377 4.58353 16.0075 4.58353C15.2874 4.58353 14.5643 4.65271 13.8622 4.78807C12.8908 4.27198 11.8083 4.00146 10.7088 4C8.91763 4 7.23142 4.70084 5.96526 5.97017C5.34047 6.59331 4.8451 7.33443 4.50777 8.15068C4.17045 8.96694 3.99787 9.84213 4.00002 10.7257C4.00002 11.8687 4.29406 12.9936 4.84312 13.9862C4.73211 14.6299 4.6721 15.2886 4.6721 15.9444C4.6721 17.4784 4.97214 18.9673 5.56321 20.366C6.13328 21.7195 6.94938 22.9347 7.99051 23.9784C9.03164 25.0222 10.2438 25.8403 11.594 26.4118C12.9921 27.0044 14.4743 27.3052 16.0045 27.3052C16.6706 27.3052 17.3367 27.245 17.9907 27.1277C18.9959 27.6962 20.13 28 21.2912 28C23.0824 28 24.7686 27.3022 26.0347 26.0298C27.3039 24.7605 28 23.0701 28 21.2743C28.003 20.1313 27.7089 19.0034 27.1539 18.0048ZM16.0525 22.9046C12.026 22.9046 10.2258 20.9194 10.2258 19.4335C10.2258 18.6695 10.7869 18.1371 11.561 18.1371C13.2832 18.1371 12.8391 20.6186 16.0525 20.6186C17.6997 20.6186 18.6088 19.7223 18.6088 18.8049C18.6088 18.2544 18.3388 17.6408 17.2527 17.3731L13.6702 16.4768C10.7869 15.7518 10.2618 14.1877 10.2618 12.7199C10.2618 9.66988 13.1271 8.52387 15.8185 8.52387C18.2968 8.52387 21.2191 9.89848 21.2191 11.7273C21.2191 12.5123 20.5411 12.9665 19.767 12.9665C18.2968 12.9665 18.5668 10.9272 15.6054 10.9272C14.1353 10.9272 13.3222 11.5949 13.3222 12.5484C13.3222 13.5019 14.4833 13.8057 15.4914 14.0373L18.1438 14.6269C21.0481 15.2766 21.7832 16.9761 21.7832 18.5763C21.7832 21.0518 19.884 22.9046 16.0525 22.9046Z" fill="#18191F"/>
</g>
</svg>
