<svg width="39" height="39" viewBox="0 0 39 39" fill="none" xmlns="http://www.w3.org/2000/svg">
<path d="M37.625 22.7577C37.8249 21.658 37.9322 20.5338 37.9322 19.4096C37.9322 16.9168 37.4446 14.4973 36.4842 12.2245C35.5578 10.0249 34.2267 8.05026 32.5349 6.35418C30.8572 4.66799 28.8684 3.32497 26.6793 2.39992C24.4073 1.43702 21.9987 0.948239 19.5122 0.948239C18.342 0.948239 17.167 1.06066 16.0261 1.28061C14.4475 0.441973 12.6885 0.00237643 10.9019 0C7.99114 0 5.25105 1.13886 3.19355 3.20153C2.17827 4.21413 1.37328 5.41845 0.82513 6.74486C0.276981 8.07127 -0.00345666 9.49346 3.2156e-05 10.9292C3.2156e-05 12.7866 0.477841 14.6146 1.37008 16.2276C1.18968 17.2736 1.09217 18.344 1.09217 19.4096C1.09217 21.9024 1.57973 24.3218 2.54022 26.5947C3.46658 28.7942 4.79275 30.7689 6.48458 32.465C8.17641 34.161 10.1462 35.4905 12.3402 36.4192C14.6122 37.3821 17.0208 37.8709 19.5073 37.8709C20.5897 37.8709 21.6721 37.7732 22.735 37.5825C24.3683 38.5063 26.2113 39 28.0981 39C31.0089 39 33.7489 37.866 35.8064 35.7985C37.8688 33.7358 39 30.9888 39 28.0708C39.0048 26.2134 38.527 24.3805 37.625 22.7577ZM19.5853 30.72C13.0423 30.72 10.1169 27.494 10.1169 25.0795C10.1169 23.8379 11.0286 22.9728 12.2865 22.9728C15.0851 22.9728 14.3636 27.0053 19.5853 27.0053C22.262 27.0053 23.7393 25.5487 23.7393 24.0579C23.7393 23.1634 23.3005 22.1663 21.5356 21.7313L15.7141 20.2747C11.0286 19.0968 10.1754 16.5551 10.1754 14.1698C10.1754 9.21356 14.8316 7.3513 19.205 7.3513C23.2323 7.3513 27.9811 9.58504 27.9811 12.5568C27.9811 13.8326 26.8792 14.5706 25.6213 14.5706C23.2323 14.5706 23.6711 11.2567 18.8589 11.2567C16.4698 11.2567 15.1485 12.3418 15.1485 13.8912C15.1485 15.4407 17.0354 15.9343 18.6736 16.3107L22.9836 17.2687C27.7032 18.3245 28.8977 21.0861 28.8977 23.6864C28.8977 27.7091 25.8115 30.72 19.5853 30.72Z" fill="#18191F"/>
</svg>
