<svg width="24" height="24" viewBox="0 0 24 24" fill="none" xmlns="http://www.w3.org/2000/svg">
<path fill-rule="evenodd" clip-rule="evenodd" d="M12 24C18.6274 24 24 18.6274 24 12C24 5.37258 18.6274 0 12 0C5.37258 0 0 5.37258 0 12C0 18.6274 5.37258 24 12 24ZM4 12C4 7.58886 7.58886 4 12 4C16.4111 4 20 7.58886 20 12V12.8711C20 14.6255 18.6821 16 17 16C16.0797 16 15.2651 15.5747 14.7144 14.9202C13.9999 15.5847 13.0503 16 12 16C9.79443 16 7.99998 14.2056 7.99998 12C7.99998 9.79443 9.79443 7.99998 12 7.99998C13.0053 7.99998 13.9141 8.38542 14.6176 9H16V13C16 13.5513 16.4487 14 17 14C17.5796 14 18 13.5254 18 12.8711V12C18 8.69142 15.3086 5.99999 12 5.99999C8.69142 5.99999 5.99999 8.69142 5.99999 12C5.99999 15.3086 8.69142 18 12 18C13.0552 18 14.0928 17.7227 15 17.1977L16.001 18.9292C14.79 19.6299 13.4067 20 12 20C7.58886 20 4 16.4111 4 12ZM10 12C10 13.103 10.897 14 12 14C13.103 14 14 13.103 14 12C14 10.897 13.103 10 12 10C10.897 10 10 10.897 10 12Z" fill="#18191F"/>
</svg>
