<svg width="39" height="39" viewBox="0 0 39 39" fill="none" xmlns="http://www.w3.org/2000/svg">
<path d="M36.0833 9.01852C30.2494 -0.000298321 18.3385 -2.68157 9.10144 2.92472C0.107473 8.53102 -2.80949 20.7186 3.02444 29.7374L3.5106 30.4687L1.56595 37.7812L8.85836 35.8312L9.5876 36.3187C12.7476 38.025 16.1508 39 19.5539 39C23.2001 39 26.8463 38.025 30.0063 36.075C39.0003 30.2249 41.6742 18.2811 36.0833 9.01852ZM30.9787 27.7874C30.0063 29.2499 28.7909 30.2249 27.0894 30.4687C26.1171 30.4687 24.9016 30.9562 20.04 29.0062C15.9077 27.0562 12.5046 23.8874 10.0738 20.2311C8.61528 18.5248 7.88604 16.3311 7.64296 14.1373C7.64296 12.1873 8.3722 10.481 9.5876 9.26227C10.0738 8.77477 10.5599 8.53102 11.0461 8.53102H12.2615C12.7476 8.53102 13.2338 8.53102 13.4769 9.50603C13.963 10.7248 15.1784 13.6498 15.1784 13.8936C15.4215 14.1373 15.4215 14.6248 15.1784 14.8686C15.4215 15.3561 15.1784 15.8436 14.9354 16.0873C14.6923 16.3311 14.4492 16.8186 14.2061 17.0623C13.72 17.3061 13.4769 17.7936 13.72 18.2811C14.6923 19.7436 15.9077 21.2061 17.1231 22.4249C18.5816 23.6436 20.04 24.6186 21.7416 25.3499C22.2278 25.5936 22.7139 25.5936 22.957 25.1061C23.2001 24.6186 24.4155 23.3999 24.9016 22.9124C25.3878 22.4249 25.6309 22.4249 26.1171 22.6686L30.0063 24.6186C30.4925 24.8624 30.9787 25.1061 31.2217 25.3499C31.4648 26.0812 31.4648 27.0562 30.9787 27.7874Z" fill="#18191F"/>
</svg>
